<svg width="287" height="492" viewBox="0 0 287 492" fill="none" xmlns="http://www.w3.org/2000/svg">
<g clip-path="url(#clip0_1_2)">
<path fill-rule="evenodd" clip-rule="evenodd" d="M143.433 303.005C143.773 303.043 144.076 303.043 144.416 303.043C156.624 303.269 166.791 291.439 160.063 277.153C159.307 288.227 154.469 294.198 144.151 294.198C143.924 294.198 143.66 294.198 143.433 294.198C143.206 294.198 142.942 294.198 142.715 294.198C132.397 294.198 127.559 288.227 126.803 277.153C120.038 291.439 130.243 303.269 142.45 303.043C142.791 303.043 143.131 303.005 143.433 303.005ZM143.433 285.43C143.698 285.468 143.962 285.468 144.227 285.468C153.26 285.695 155.187 276.548 152.957 270.992C151.521 276.51 147.326 279.345 143.433 278.438C139.54 279.307 135.345 276.51 133.909 270.992C131.679 276.51 133.606 285.695 142.639 285.468C142.904 285.468 143.169 285.468 143.433 285.43ZM143.433 258.066C144.416 258.028 145.361 258.028 146.268 258.066C174.765 259.313 211.049 269.102 226.054 263.282C236.334 259.276 252.964 246.841 260.712 257.802C263.055 261.128 253.606 269.367 253.417 259.616C249.6 251.754 241.436 263.509 247.37 269.745C225.751 291.137 166.98 266.759 161.348 265.172C159.723 264.718 158.854 266.419 160.139 268.687C162.18 272.353 168.491 277.682 170.003 283.313C173.065 294.652 163.956 312.869 145.739 313.398C144.983 313.436 144.227 313.398 143.509 313.361C142.791 313.398 142.035 313.398 141.279 313.398C123.061 312.907 113.915 294.69 117.014 283.313C118.526 277.682 124.838 272.315 126.879 268.687C128.164 266.419 127.257 264.718 125.669 265.172C120.038 266.759 61.2661 291.137 39.6472 269.745C45.5811 263.509 37.4173 251.754 33.6 259.616C33.411 269.367 23.9622 261.128 26.3055 257.802C34.0535 246.841 50.6457 259.313 60.9638 263.282C75.9307 269.102 112.252 259.313 140.712 258.066C141.581 258.028 142.526 258.028 143.546 258.066H143.433ZM143.433 224.277C141.846 224.05 139.994 224.731 139.88 226.28C138.028 241.776 139.691 239.509 134.324 246.009C126.728 255.232 119.282 254.438 107.339 255.08C96.0378 255.723 87.0425 256.479 85.1528 251.603C84.1323 249.033 90.4441 229.795 107.943 226.243C114.142 224.995 125.631 228.095 125.631 224.391C125.631 218.117 108.397 219.969 102.992 221.367C84.0189 226.243 68.0315 233.991 53.2913 255.345C81.1843 269.858 111.156 255.609 142.715 253.984C142.98 254.022 143.206 254.022 143.471 254.06C143.735 254.022 143.962 254.022 144.227 253.984C175.786 255.609 205.757 269.858 233.65 255.345C218.91 233.953 202.885 226.243 183.95 221.367C178.545 219.969 161.31 218.117 161.31 224.391C161.31 228.095 172.8 224.995 178.998 226.243C196.498 229.795 202.809 249.033 201.789 251.603C199.861 256.479 190.904 255.723 179.603 255.08C167.66 254.4 160.214 255.232 152.617 246.009C147.25 239.509 148.913 241.776 147.061 226.28C146.948 224.731 145.134 224.05 143.509 224.277H143.433ZM143.433 131.603C142.602 131.112 141.883 129.487 141.808 126.765C141.543 114.066 138.217 100.573 139.502 85.7575C140.031 80.5417 141.657 77.6315 143.433 76.9512C145.209 77.6315 146.835 80.5417 147.364 85.7575C148.649 100.535 145.323 114.066 145.058 126.765C144.983 129.449 144.265 131.112 143.433 131.603ZM143.433 -0.0377808C124.46 14.2488 94.337 17.348 94.8661 54.1228C94.5638 68.7118 101.329 76.8756 126.765 76.611C134.362 76.5354 134.4 102.614 134.173 114.028C129.411 105.902 124.951 100.384 116.372 93.8835C96.7937 76.8 87.5339 73.1717 87.5339 52.2709C87.5339 36.3969 91.4646 31.3323 99.7795 20.674C70.4882 25.4362 28.3843 50.5323 59.3386 80.8819C73.0583 94.2236 95.0551 83.452 110.098 96.0378C118.677 102.274 134.967 121.058 134.967 133.984L135.383 141.581L134.06 175.71C133.909 177.713 131.376 177.298 131.339 175.521C131.339 138.671 111.685 112.517 77.3291 112.517C64.6299 112.517 57.3354 115.162 43.9559 114.633C31.3323 114.784 16.4409 104.731 15.9496 94.0725C1.88976 107.565 4.0063 140.447 29.8205 137.726C46.4504 134.211 48.2646 118.186 72.189 118.186C87.2315 118.11 99.4016 118.45 111.269 130.809C116.447 136.214 120.907 141.354 123.817 160.063C124.082 164.334 122.306 164.183 121.285 161.839C112.403 141.732 103.181 136.857 86.8535 136.139C60.5858 135.987 37.9465 174.576 18.8598 174.576C10.1291 174.576 5.10236 171.137 0.037796 164.296C0.491339 180.283 2.68347 195.175 19.9559 195.326C30.5386 195.477 39.1181 182.476 44.863 173.102C54.7654 156.85 73.7386 137.877 94.4882 142.186C112.706 146.948 123.25 166.11 123.25 194.381C123.25 200.013 120.945 209.953 114.142 209.953C107.641 209.953 105.298 208.403 105.298 202.016C105.298 190.299 109.342 162.633 96.0378 162.633C88.7811 162.369 85.6063 166.602 85.3417 172.157C85.3795 178.28 97.5118 183.458 95.3197 173.896C94.6394 170.948 99.4394 169.739 99.7039 174.198C99.4772 183.798 91.0488 182.665 91.9181 203.376C91.9181 219.288 104.542 216 121.058 216.076C134.589 217.701 129.789 232.214 120.302 232.252C115.616 232.441 114.066 229.606 110.967 229.153C108.359 228.775 105.789 229.531 105.222 231.42C103.786 239.282 115.011 241.436 123.893 241.436C130.243 241.776 121.436 246.841 117.09 246.954C114.066 247.03 114.217 250.129 116.939 250.167C132.435 249.713 133.493 239.093 136.554 224.806C136.819 221.102 139.2 219.477 143.509 219.288C147.817 219.515 150.161 221.102 150.463 224.806C153.487 239.093 154.545 249.751 170.079 250.167C172.8 250.091 172.951 247.03 169.928 246.954C165.581 246.803 156.775 241.739 163.124 241.436C172.044 241.436 183.269 239.244 181.795 231.42C181.228 229.531 178.658 228.813 176.05 229.153C172.913 229.606 171.402 232.441 166.715 232.252C157.191 232.214 152.391 217.701 165.959 216.076C182.476 215.962 195.099 219.25 195.099 203.376C195.969 182.702 187.54 183.798 187.313 174.198C187.578 169.739 192.378 170.948 191.698 173.896C189.506 183.458 201.638 178.28 201.676 172.157C201.411 166.602 198.236 162.369 190.98 162.633C177.676 162.633 181.72 190.299 181.72 202.016C181.72 208.365 179.376 209.953 172.876 209.953C166.072 209.953 163.767 200.013 163.767 194.381C163.767 166.11 174.312 146.986 192.529 142.186C213.279 137.877 232.252 156.85 242.154 173.102C247.861 182.476 256.479 195.477 267.061 195.326C284.296 195.175 286.526 180.283 286.98 164.296C281.915 171.137 276.888 174.576 268.157 174.576C249.071 174.576 226.431 135.987 200.164 136.139C183.836 136.819 174.614 141.732 165.732 161.839C164.712 164.183 162.935 164.372 163.2 160.063C166.11 141.354 170.532 136.252 175.748 130.809C187.578 118.45 199.786 118.072 214.828 118.186C238.715 118.186 240.567 134.211 257.197 137.726C283.049 140.447 285.128 107.565 271.068 94.0725C270.576 104.731 255.685 114.784 243.061 114.633C229.682 115.162 222.387 112.517 209.688 112.517C175.332 112.517 155.679 138.633 155.679 175.521C155.641 177.335 153.109 177.713 152.957 175.71L151.635 141.581L152.05 133.984C152.05 121.058 168.34 102.274 176.92 96.0378C191.962 83.452 213.959 94.2236 227.679 80.8819C258.671 50.5701 216.529 25.474 187.238 20.674C195.553 31.3323 199.483 36.3969 199.483 52.2709C199.483 73.1717 190.224 76.8 170.646 93.8835C162.066 100.384 157.606 105.902 152.844 114.028C152.617 102.576 152.617 76.5354 160.252 76.611C185.65 76.8378 192.416 68.674 192.151 54.1228C192.68 17.348 162.557 14.211 143.584 -0.0377808H143.433ZM132.094 23.0551C125.216 24.9827 121.625 36.0945 122.154 47.6599C122.154 53.7827 127.332 61.9087 130.961 64.441C128.466 57.7512 124.762 41.8394 132.094 23.0929V23.0551ZM139.616 179.565C139.616 175.975 135.912 175.446 135.761 180.888C136.29 197.405 128.731 196.762 128.277 203.15C128.277 207.874 129.184 211.2 135.269 210.557C140.636 210.557 139.691 200.391 139.691 195.704L139.616 179.565ZM75.3638 94.5638C70.9417 101.745 56.9197 108.132 47.9244 108.132C15.1181 108.132 16.4032 72.6425 41.726 55.8992C41.0835 80.0882 53.3291 94.4882 75.3638 94.5638ZM39.9496 141.959C35.9811 157.72 29.4425 167.584 16.0252 167.584C-1.88976 165.846 -0.944881 139.956 2.87244 130.016C11.8299 146.192 26.5701 147.25 39.9496 141.959ZM114.028 198.539C117.317 198.236 118.526 201.676 117.317 204.057C116.107 206.438 112.706 206.173 111.231 203.83C110.098 202.054 110.816 198.652 114.028 198.539ZM25.663 218.419C18.2173 218.419 9.07087 206.589 8.05039 199.219C12.6614 201.222 18.2929 203.414 23.9244 202.507C30.3496 201.222 30.6898 200.58 34.0913 196.006C40.1008 205.493 38.7024 218.419 25.663 218.419ZM38.6268 234.482C28.8378 237.468 21.6189 225.411 19.7669 221.82C26.1921 225.789 38.589 225.6 41.1213 218.532C43.6157 225.26 45.0142 231.496 38.6268 234.482ZM42.1417 246.992C37.9843 246.274 35.452 244.384 34.6205 241.247C39.7228 242.041 45.1276 240.529 47.0929 236.258C49.7386 240.907 49.0583 248.202 42.1039 246.992H42.1417ZM89.6882 233.575C85.2661 237.846 80.9953 245.896 77.5559 251.036C75.326 254.362 71.811 253.191 72.7181 251.263C75.515 245.443 83.4898 235.502 89.6882 233.575ZM86.1732 230.778C81.8646 235.124 76.6488 240.265 75.515 241.587C68.485 249.94 65.0079 254.816 63.0425 249.94C62.6268 248.957 66.5197 243.175 72.2268 238.942C76.7244 235.654 80.5795 232.365 86.1354 230.778H86.1732ZM116.372 307.616C109.757 311.131 92.9764 307.087 90.5197 298.923C100.271 294.161 105.071 290.419 112.365 284.636C112.101 295.521 113.235 299.036 116.372 307.616ZM62.8535 284.901C67.7669 284.22 79.1055 284.939 86.3244 282.671C98.0409 278.929 104.466 277.984 115.427 273.373C111.194 281.272 99.2126 288.416 95.3197 291.061C85.1906 299.754 64.8945 299.074 62.8913 284.901H62.8535ZM154.809 23.0929C161.688 25.0205 165.279 36.1323 164.75 47.6977C164.75 53.8205 159.572 61.9465 155.943 64.4788C158.438 57.789 162.142 41.8772 154.809 23.1307V23.0929ZM147.288 179.603C147.288 176.013 150.992 175.483 151.143 180.926C150.614 197.443 158.173 196.8 158.627 203.187C158.627 207.912 157.72 211.238 151.635 210.595C146.268 210.595 147.213 200.428 147.213 195.742L147.288 179.603ZM211.54 94.6016C215.962 101.783 229.984 108.17 238.98 108.17C271.786 108.17 270.501 72.6803 245.178 55.937C245.82 80.126 233.575 94.526 211.54 94.6016ZM246.954 141.997C250.923 157.757 257.461 167.622 270.879 167.622C288.794 165.883 287.849 139.994 284.031 130.054C275.074 146.23 260.334 147.288 246.954 141.997ZM172.876 198.576C169.587 198.274 168.378 201.713 169.587 204.095C170.797 206.476 174.198 206.211 175.672 203.868C176.806 202.091 176.088 198.69 172.876 198.576ZM261.241 218.457C268.687 218.457 277.833 206.627 278.854 199.257C274.243 201.26 268.611 203.452 262.98 202.545C256.554 201.26 256.214 200.617 252.813 196.044C246.803 205.531 248.202 218.457 261.241 218.457ZM248.277 234.52C258.066 237.506 265.285 225.449 267.137 221.858C260.712 225.827 248.315 225.638 245.783 218.57C243.288 225.298 241.89 231.534 248.277 234.52ZM244.762 247.03C248.92 246.312 251.452 244.422 252.283 241.285C247.181 242.079 241.776 240.567 239.811 236.296C237.165 240.945 237.846 248.239 244.8 247.03H244.762ZM197.216 233.613C201.638 237.883 205.909 245.934 209.348 251.074C211.578 254.4 215.093 253.228 214.186 251.301C211.389 245.48 203.414 235.54 197.216 233.613ZM200.731 230.816C205.039 235.162 210.255 240.302 211.389 241.625C218.419 249.978 221.896 254.854 223.861 249.978C224.277 248.995 220.384 243.213 214.677 238.98C210.18 235.691 206.324 232.403 200.769 230.816H200.731ZM170.532 307.654C177.146 311.169 193.928 307.124 196.384 298.961C186.633 294.198 181.833 290.457 174.539 284.674C174.803 295.559 173.669 299.074 170.532 307.654ZM224.05 284.939C219.137 284.258 207.798 284.976 200.58 282.709C188.863 278.967 182.438 278.022 171.477 273.411C175.71 281.31 187.691 288.454 191.584 291.099C201.713 299.792 222.009 299.112 224.013 284.939H224.05Z" fill="#FFDC01"/>
<path d="M4.0441 349.72C4.0441 355.729 5.55591 358.791 7.59685 360.68C10.5071 363.402 14.3244 363.553 16.4409 363.553C19.011 363.553 21.8835 363.099 24.7181 360.567C28.0819 357.581 28.4976 352.706 28.4976 348.132V343.71C28.4976 337.436 28.4976 336.265 28.5732 334.942C28.6488 333.506 28.9512 332.787 30.0472 332.598C30.5386 332.523 30.7654 332.485 31.2189 332.485C31.7102 332.485 31.937 332.409 31.937 332.107C31.937 331.805 31.6724 331.729 31.1055 331.729C29.5559 331.729 27.0614 331.843 26.5701 331.843C26.5323 331.843 24.0378 331.729 21.9969 331.729C21.4299 331.729 21.1654 331.805 21.1654 332.107C21.1654 332.409 21.3921 332.485 21.8457 332.485C22.2992 332.485 22.9417 332.523 23.2819 332.598C24.6047 332.901 24.9071 333.543 24.9827 334.942C25.0583 336.265 25.0583 337.436 25.0583 343.71V348.888C25.0583 353.159 24.9449 356.863 22.7528 359.169C21.1654 360.831 19.011 361.398 17.2724 361.398C15.9118 361.398 14.0976 361.247 12.2835 359.698C10.3181 358.035 9.18425 355.502 9.18425 349.531V343.748C9.18425 337.474 9.18425 336.302 9.25984 334.98C9.33543 333.543 9.67559 332.825 10.7339 332.636C11.2252 332.561 11.452 332.523 11.9055 332.523C12.3213 332.523 12.548 332.447 12.548 332.145C12.548 331.843 12.2835 331.767 11.6787 331.767C10.2425 331.767 7.74803 331.88 6.76536 331.88C5.55591 331.88 3.06142 331.767 0.944883 331.767C0.340159 331.767 0.075592 331.843 0.075592 332.145C0.075592 332.447 0.302364 332.523 0.755907 332.523C1.32284 332.523 2.00315 332.561 2.30551 332.636C3.62835 332.939 3.93071 333.581 4.0063 334.98C4.08189 336.302 4.08189 337.474 4.08189 343.748V349.795L4.0441 349.72ZM216.265 409.701C218.381 409.701 220.611 409.323 222.576 408C225.449 406.072 226.318 403.2 226.318 400.819C226.318 396.888 224.617 394.054 219.78 390.274L218.683 389.405C215.395 386.797 214.45 385.361 214.45 383.433C214.45 380.939 216.227 379.162 219.175 379.162C221.745 379.162 222.917 380.409 223.521 381.203C224.353 382.261 224.542 383.546 224.542 383.924C224.542 384.416 224.655 384.68 224.957 384.68C225.26 384.68 225.411 384.34 225.411 383.433C225.411 380.22 225.562 379.011 225.562 378.482C225.562 378.18 225.373 378.066 224.995 377.991C223.975 377.688 222.274 377.272 219.704 377.272C214.186 377.272 210.52 380.561 210.52 385.096C210.52 388.46 212.031 391.332 216.416 394.885L218.23 396.359C221.518 399.043 222.123 400.97 222.123 402.973C222.123 405.165 220.384 407.698 216.794 407.698C214.337 407.698 211.994 406.564 211.087 403.502C210.898 402.784 210.709 401.915 210.709 401.386C210.709 401.046 210.671 400.668 210.293 400.668C209.991 400.668 209.877 401.121 209.802 401.764C209.764 402.444 209.613 404.901 209.613 407.169C209.613 408.076 209.726 408.302 210.369 408.567C212.069 409.361 213.883 409.663 216.189 409.663L216.265 409.701ZM235.805 397.115C235.805 401.121 235.805 404.409 235.616 406.148C235.502 407.357 235.276 408.038 234.444 408.227C234.066 408.302 233.613 408.378 233.008 408.378C232.517 408.378 232.365 408.491 232.365 408.718C232.365 409.02 232.63 409.134 233.159 409.134C234.746 409.134 237.241 409.02 238.186 409.02C239.282 409.02 241.776 409.134 244.384 409.134C244.838 409.134 245.14 409.02 245.14 408.718C245.14 408.491 244.951 408.378 244.498 408.378C243.893 408.378 243.024 408.302 242.457 408.227C241.247 408.076 240.983 407.32 240.869 406.186C240.718 404.409 240.718 401.121 240.718 397.115V389.82C240.718 383.546 240.718 382.375 240.794 381.052C240.869 379.616 241.209 378.898 242.268 378.709C242.759 378.633 243.061 378.595 243.477 378.595C243.893 378.595 244.12 378.52 244.12 378.18C244.12 377.953 243.817 377.839 243.288 377.839C241.776 377.839 239.433 377.953 238.45 377.953C237.279 377.953 234.784 377.839 233.272 377.839C232.63 377.839 232.328 377.915 232.328 378.18C232.328 378.52 232.554 378.595 232.97 378.595C233.461 378.595 233.953 378.633 234.406 378.746C235.276 378.935 235.691 379.654 235.767 381.052C235.843 382.375 235.843 383.546 235.843 389.82V397.115H235.805ZM264.265 398.324C264.454 398.324 264.567 398.4 264.68 398.627L267.855 407.395C268.044 407.887 267.78 408.265 267.477 408.34C267.061 408.378 266.91 408.454 266.91 408.718C266.91 409.02 267.402 409.02 268.12 409.058C271.294 409.134 274.205 409.134 275.641 409.134C277.115 409.134 277.455 409.058 277.455 408.718C277.455 408.416 277.266 408.378 276.926 408.378C276.435 408.378 275.868 408.34 275.263 408.227C274.431 407.962 273.26 407.395 271.748 403.691C269.216 397.417 262.828 380.561 261.883 378.255C261.506 377.31 261.241 376.932 260.901 376.932C260.485 376.932 260.258 377.386 259.767 378.595L249.789 404.561C248.995 406.639 248.239 408.038 246.387 408.265C246.085 408.302 245.518 408.34 245.14 408.34C244.838 408.34 244.649 408.416 244.649 408.68C244.649 409.02 244.876 409.096 245.405 409.096C247.483 409.096 249.676 408.983 250.091 408.983C251.339 408.983 253.039 409.096 254.324 409.096C254.778 409.096 255.005 409.02 255.005 408.68C255.005 408.416 254.891 408.34 254.4 408.34H253.795C252.548 408.34 252.208 407.811 252.208 407.055C252.208 406.564 252.397 405.581 252.813 404.523L254.967 398.627C255.043 398.362 255.118 398.287 255.345 398.287H264.227L264.265 398.324ZM256.176 396.246C256.025 396.246 255.987 396.132 256.025 395.943L259.691 385.776C259.729 385.625 259.805 385.398 259.918 385.398C260.031 385.398 260.069 385.587 260.107 385.776L263.698 395.981C263.735 396.094 263.698 396.246 263.509 396.246H256.176ZM41.4614 339.931H41.5748C42.2929 340.724 46.715 345.902 51.0614 350.362C55.1811 354.633 60.2835 360.038 62.778 362.532C63.2315 362.986 63.685 363.439 64.1386 363.439C64.5165 363.439 64.6677 363.061 64.6677 362.154L65.1213 336.038C65.1591 333.732 65.4992 332.863 66.5953 332.523C67.0866 332.409 67.389 332.409 67.8047 332.409C68.2961 332.409 68.5228 332.296 68.5228 332.031C68.5228 331.691 68.1449 331.654 67.6157 331.654C65.6504 331.654 64.1386 331.767 63.7228 331.767C62.8913 331.767 60.9638 331.654 58.9228 331.654C58.3181 331.654 57.9024 331.691 57.9024 332.031C57.9024 332.296 58.0535 332.409 58.5449 332.409C59.1118 332.409 60.0567 332.409 60.6614 332.674C61.6063 333.09 61.9843 333.883 62.022 336.378L62.4378 354.935H62.2488C61.5685 354.255 56.2016 348.321 53.4803 345.524C47.6598 339.515 41.6126 332.787 41.1591 332.258C40.4787 331.502 40.1386 330.973 39.685 330.973C39.2693 330.973 39.1559 331.54 39.1559 332.372L38.8157 356.863C38.778 360.454 38.6268 361.663 37.5685 362.003C37.0016 362.154 36.2835 362.23 35.7921 362.23C35.3764 362.23 35.1496 362.306 35.1496 362.57C35.1496 362.948 35.5276 362.986 36.0189 362.986C38.0976 362.986 39.9496 362.872 40.3276 362.872C41.0835 362.872 42.6709 362.986 45.2409 362.986C45.8079 362.986 46.148 362.91 46.148 362.57C46.148 362.343 45.9213 362.23 45.4677 362.23C44.8252 362.23 44.0693 362.192 43.389 361.928C42.5953 361.625 42.0661 360.567 41.9906 357.317L41.537 339.931H41.4614ZM77.3291 350.929C77.3291 354.935 77.3291 358.224 77.1402 359.962C77.0268 361.172 76.7622 361.852 75.9685 362.041C75.5906 362.117 75.137 362.192 74.5323 362.192C74.0409 362.192 73.8898 362.306 73.8898 362.532C73.8898 362.835 74.1543 362.948 74.6835 362.948C76.2709 362.948 78.7654 362.835 79.7102 362.835C80.7685 362.835 83.3008 362.948 85.9087 362.948C86.3622 362.948 86.6646 362.835 86.6646 362.532C86.6646 362.343 86.4756 362.192 86.022 362.192C85.4173 362.192 84.548 362.117 83.9811 362.041C82.7717 361.89 82.5071 361.134 82.3937 360C82.2425 358.224 82.2425 354.973 82.2425 350.929V343.635C82.2425 337.361 82.2425 336.189 82.3181 334.866C82.3937 333.43 82.7339 332.712 83.7921 332.523C84.2835 332.447 84.5858 332.409 85.0016 332.409C85.4173 332.409 85.6441 332.334 85.6441 331.994C85.6441 331.729 85.3417 331.654 84.8126 331.654C83.3008 331.654 80.9575 331.767 79.9748 331.767C78.8032 331.767 76.3087 331.654 74.7969 331.654C74.1543 331.654 73.852 331.729 73.852 331.994C73.852 332.334 74.0787 332.409 74.4945 332.409C74.9858 332.409 75.4772 332.447 75.9307 332.561C76.8 332.75 77.2157 333.468 77.2913 334.866C77.3669 336.189 77.3669 337.361 77.3669 343.635V350.929H77.3291ZM101.669 360.983C102.425 362.948 102.652 363.515 103.181 363.515C103.748 363.515 103.975 362.835 104.995 360.454C105.865 358.375 107.754 353.877 110.287 347.83C112.441 342.728 113.499 340.498 115.049 336.605C116.107 333.959 116.712 333.241 117.241 332.863C117.959 332.372 118.791 332.372 119.206 332.372C119.622 332.372 119.849 332.296 119.849 331.994C119.849 331.691 119.546 331.616 119.017 331.616C117.808 331.616 115.956 331.729 115.276 331.729C114.746 331.729 113.083 331.616 111.08 331.616C110.324 331.616 109.984 331.691 109.984 332.031C109.984 332.334 110.287 332.372 110.665 332.372C111.194 332.372 111.761 332.409 112.252 332.561C112.592 332.674 112.781 333.014 112.781 333.354C112.781 333.732 112.63 334.337 112.403 334.904C111.458 337.625 106.28 350.967 104.58 355.502H104.428L97.5874 336.718C97.0205 335.244 96.6803 334.072 96.6803 333.543C96.6803 333.165 96.7937 332.863 97.0961 332.674C97.3984 332.409 98.0032 332.372 98.6457 332.372C98.9858 332.372 99.2504 332.296 99.2504 331.994C99.2504 331.691 98.7969 331.616 98.3433 331.616C96.3402 331.616 94.4504 331.729 93.4677 331.729C92.0693 331.729 89.8016 331.616 87.685 331.616C87.0803 331.616 86.6646 331.654 86.6646 331.994C86.6646 332.258 86.778 332.372 87.1559 332.372C87.4583 332.372 88.1008 332.372 88.7055 332.523C90.1417 332.939 90.822 333.392 91.7291 335.66L101.745 360.945L101.669 360.983ZM124.12 350.929C124.12 354.746 124.12 357.997 123.931 359.735C123.78 360.945 123.553 361.852 122.759 362.003C122.419 362.079 121.928 362.154 121.323 362.154C120.831 362.154 120.68 362.268 120.68 362.494C120.68 362.797 120.945 362.91 121.474 362.91C122.268 362.91 123.288 362.835 124.233 362.835C125.178 362.797 126.047 362.797 126.501 362.797C127.71 362.797 128.92 362.835 130.62 362.91C132.321 362.948 134.513 363.024 137.499 363.024C139.011 363.024 139.389 363.024 139.654 361.928C139.843 361.096 140.183 358.299 140.183 357.354C140.183 356.939 140.183 356.598 139.88 356.598C139.616 356.598 139.502 356.75 139.427 357.203C139.162 358.904 138.671 359.773 137.65 360.265C136.63 360.756 134.929 360.756 133.909 360.756C129.865 360.756 129.222 360.151 129.146 357.279C129.109 356.069 129.146 352.29 129.146 350.854V347.565C129.146 347.339 129.184 347.15 129.373 347.15C130.318 347.15 134.249 347.187 135.043 347.263C136.517 347.414 137.083 348.057 137.272 348.888C137.386 349.417 137.386 349.984 137.424 350.362C137.424 350.551 137.499 350.74 137.802 350.74C138.18 350.74 138.18 350.287 138.18 349.946C138.18 349.644 138.293 348.019 138.331 347.187C138.482 345.071 138.633 344.428 138.633 344.164C138.633 343.937 138.52 343.824 138.369 343.824C138.18 343.824 137.991 344.013 137.726 344.353C137.348 344.769 136.781 344.882 135.798 344.957C134.891 345.033 130.318 345.033 129.449 345.033C129.222 345.033 129.184 344.882 129.184 344.58V334.11C129.184 333.808 129.26 333.694 129.449 333.694C130.243 333.694 134.438 333.77 135.118 333.846C137.121 334.11 137.499 334.602 137.802 335.32C137.991 335.811 138.028 336.529 138.028 336.794C138.028 337.172 138.104 337.361 138.406 337.361C138.671 337.361 138.784 337.096 138.822 336.907C138.898 336.416 138.973 334.602 139.011 334.186C139.124 332.296 139.313 331.805 139.313 331.502C139.313 331.313 139.276 331.124 139.087 331.124C138.898 331.124 138.633 331.238 138.444 331.276C138.142 331.351 137.499 331.427 136.743 331.54C135.987 331.578 128.05 331.578 126.803 331.578C126.236 331.578 125.329 331.54 124.309 331.502C123.326 331.502 122.154 331.465 121.096 331.465C120.491 331.465 120.227 331.54 120.227 331.843C120.227 332.145 120.454 332.22 120.907 332.22C121.474 332.22 122.154 332.258 122.457 332.334C123.78 332.636 124.082 333.279 124.157 334.677C124.233 336 124.233 337.172 124.233 343.446V350.74L124.12 350.929ZM149.254 350.929C149.254 354.746 149.254 357.997 149.065 359.735C148.913 360.945 148.724 361.852 147.893 362.003C147.515 362.079 147.061 362.154 146.457 362.154C145.965 362.154 145.814 362.268 145.814 362.494C145.814 362.797 146.079 362.91 146.608 362.91C148.195 362.91 150.69 362.797 151.446 362.797C152.05 362.797 154.998 362.91 157.304 362.91C157.833 362.91 158.098 362.797 158.098 362.494C158.098 362.306 157.946 362.154 157.606 362.154C157.115 362.154 156.246 362.079 155.641 362.003C154.431 361.852 154.205 360.945 154.091 359.735C153.902 357.997 153.902 354.746 153.902 350.891V350.324C153.902 350.06 154.016 349.984 154.205 349.984L157.682 350.06C157.946 350.06 158.211 350.098 158.4 350.362C158.929 350.967 160.743 353.802 162.331 356.069C164.561 359.244 166.072 361.209 167.773 362.154C168.794 362.721 169.814 362.948 172.044 362.948H175.824C176.315 362.948 176.58 362.872 176.58 362.532C176.58 362.343 176.428 362.192 176.088 362.192C175.786 362.192 175.408 362.154 174.954 362.079C174.35 361.965 172.724 361.663 170.494 359.282C168.151 356.712 165.392 353.046 161.877 348.397C165.883 344.995 167.131 342.198 167.131 339.137C167.131 336.378 165.543 334.261 164.409 333.468C162.255 331.956 159.609 331.691 157.077 331.691C155.83 331.691 152.806 331.805 151.483 331.805C150.652 331.805 148.157 331.691 146.041 331.691C145.436 331.691 145.172 331.767 145.172 332.069C145.172 332.372 145.398 332.447 145.852 332.447C146.419 332.447 147.099 332.485 147.402 332.561C148.724 332.863 149.027 333.506 149.102 334.904C149.178 336.227 149.178 337.398 149.178 343.672V350.967L149.254 350.929ZM153.94 334.337C153.94 333.997 154.016 333.846 154.318 333.77C154.734 333.657 155.414 333.619 156.435 333.619C158.778 333.619 162.52 335.32 162.52 341.178C162.52 344.58 161.348 346.469 160.176 347.376C159.458 347.906 158.929 348.094 157.342 348.094C156.359 348.094 155.15 347.981 154.318 347.679C154.054 347.565 153.94 347.376 153.94 346.923V334.337ZM182.324 363.515C184.441 363.515 186.671 363.137 188.636 361.814C191.509 359.887 192.378 357.014 192.378 354.633C192.378 350.702 190.677 347.83 185.839 344.088L184.743 343.219C181.455 340.611 180.51 339.175 180.51 337.247C180.51 334.753 182.287 332.976 185.235 332.976C187.805 332.976 188.976 334.224 189.581 335.017C190.413 336.113 190.602 337.398 190.602 337.739C190.602 338.23 190.715 338.494 191.017 338.494C191.32 338.494 191.471 338.154 191.471 337.247C191.471 334.035 191.622 332.825 191.622 332.296C191.622 331.994 191.433 331.88 191.055 331.805C190.035 331.502 188.334 331.087 185.764 331.087C180.246 331.087 176.58 334.375 176.58 338.91C176.58 342.274 178.091 345.146 182.476 348.699L184.29 350.173C187.578 352.857 188.183 354.746 188.183 356.787C188.183 358.98 186.444 361.512 182.854 361.512C180.397 361.512 178.054 360.378 177.146 357.317C176.957 356.598 176.769 355.729 176.769 355.2C176.769 354.86 176.731 354.482 176.353 354.482C176.05 354.482 175.899 354.935 175.861 355.54C175.824 356.22 175.672 358.677 175.672 360.945C175.672 361.852 175.786 362.041 176.428 362.343C178.129 363.137 179.943 363.439 182.249 363.439L182.324 363.515ZM201.865 350.929C201.865 354.935 201.865 358.224 201.676 359.962C201.562 361.172 201.298 361.852 200.504 362.041C200.126 362.117 199.672 362.192 199.068 362.192C198.576 362.192 198.425 362.306 198.425 362.532C198.425 362.835 198.69 362.948 199.219 362.948C200.806 362.948 203.301 362.835 204.246 362.835C205.304 362.835 207.836 362.948 210.444 362.948C210.898 362.948 211.2 362.835 211.2 362.532C211.2 362.343 211.011 362.192 210.557 362.192C209.953 362.192 209.083 362.117 208.517 362.041C207.307 361.89 207.043 361.134 206.929 360C206.778 358.224 206.778 354.973 206.778 350.929V343.635C206.778 337.361 206.778 336.189 206.854 334.866C206.929 333.43 207.269 332.712 208.328 332.523C208.819 332.447 209.121 332.409 209.537 332.409C209.953 332.409 210.18 332.334 210.18 331.994C210.18 331.729 209.877 331.654 209.348 331.654C207.836 331.654 205.493 331.767 204.51 331.767C203.339 331.767 200.844 331.654 199.332 331.654C198.69 331.654 198.387 331.729 198.387 331.994C198.387 332.334 198.614 332.409 199.03 332.409C199.521 332.409 200.013 332.447 200.466 332.561C201.335 332.75 201.751 333.468 201.827 334.866C201.902 336.189 201.902 337.361 201.902 343.635V350.929H201.865ZM225.146 350.929C225.146 354.746 225.146 357.997 224.957 359.735C224.844 360.945 224.617 361.852 223.786 362.003C223.408 362.079 222.954 362.154 222.35 362.154C221.858 362.154 221.707 362.268 221.707 362.494C221.707 362.797 221.972 362.91 222.501 362.91C224.088 362.91 226.583 362.797 227.528 362.797C228.624 362.797 231.156 362.91 233.764 362.91C234.217 362.91 234.52 362.797 234.52 362.494C234.52 362.306 234.331 362.154 233.877 362.154C233.272 362.154 232.403 362.079 231.836 362.003C230.627 361.852 230.4 360.945 230.287 359.773C230.098 357.997 230.098 354.709 230.098 350.929V333.959L235.124 334.072C238.677 334.148 239.735 335.32 239.811 336.378L239.849 336.831C239.887 337.436 239.962 337.663 240.265 337.663C240.491 337.663 240.567 337.398 240.643 336.983C240.643 335.924 240.756 333.052 240.756 332.183C240.756 331.578 240.718 331.313 240.454 331.313C240.302 331.313 239.962 331.389 239.395 331.502C238.791 331.578 237.921 331.691 236.636 331.691H220.876C219.553 331.691 218.041 331.616 216.907 331.502C215.924 331.427 215.509 331.011 215.206 331.011C214.98 331.011 214.828 331.276 214.715 331.805C214.639 332.145 213.883 335.887 213.883 336.567C213.883 337.02 213.959 337.247 214.261 337.247C214.488 337.247 214.639 337.096 214.715 336.756C214.791 336.416 214.98 335.924 215.395 335.32C216 334.413 216.945 334.186 219.25 334.11L225.184 333.959V350.929H225.146ZM256.176 352.139C256.365 352.139 256.479 352.214 256.554 352.441L259.729 361.209C259.918 361.701 259.654 362.079 259.389 362.154C258.973 362.192 258.822 362.268 258.822 362.532C258.822 362.835 259.313 362.835 260.031 362.872C263.206 362.948 266.117 362.948 267.553 362.948C269.027 362.948 269.367 362.872 269.367 362.532C269.367 362.23 269.178 362.192 268.838 362.192C268.346 362.192 267.78 362.154 267.175 362.041C266.343 361.776 265.172 361.209 263.66 357.506C261.128 351.231 254.74 334.375 253.795 332.069C253.38 331.124 253.153 330.746 252.813 330.746C252.397 330.746 252.17 331.2 251.717 332.409L241.739 358.375C240.945 360.454 240.189 361.852 238.337 362.117C238.035 362.154 237.468 362.192 237.09 362.192C236.787 362.192 236.598 362.268 236.598 362.532C236.598 362.872 236.825 362.948 237.354 362.948C239.433 362.948 241.625 362.835 242.041 362.835C243.288 362.835 244.989 362.948 246.274 362.948C246.728 362.948 246.954 362.872 246.954 362.532C246.954 362.306 246.841 362.192 246.35 362.192H245.745C244.498 362.192 244.157 361.663 244.157 360.907C244.157 360.416 244.346 359.433 244.762 358.375L246.917 352.479C246.992 352.214 247.068 352.139 247.294 352.139H256.176ZM248.088 350.06C247.937 350.06 247.899 349.946 247.937 349.757L251.603 339.591C251.641 339.439 251.717 339.213 251.83 339.213C251.943 339.213 251.981 339.402 252.019 339.591L255.609 349.795C255.647 349.909 255.609 350.06 255.42 350.06H248.088ZM276.775 363.515C278.891 363.515 281.121 363.137 283.087 361.814C285.959 359.887 286.828 357.014 286.828 354.633C286.828 350.702 285.128 347.83 280.29 344.088L279.194 343.219C275.906 340.611 274.961 339.175 274.961 337.247C274.961 334.753 276.737 332.976 279.685 332.976C282.255 332.976 283.427 334.224 284.031 335.017C284.863 336.113 285.052 337.398 285.052 337.739C285.052 338.23 285.165 338.494 285.468 338.494C285.77 338.494 285.921 338.154 285.921 337.247C285.921 334.035 286.072 332.825 286.072 332.296C286.072 331.994 285.883 331.88 285.506 331.805C284.485 331.502 282.784 331.087 280.214 331.087C274.696 331.087 271.03 334.375 271.03 338.91C271.03 342.274 272.542 345.146 276.926 348.699L278.74 350.173C282.028 352.857 282.633 354.746 282.633 356.787C282.633 358.98 280.894 361.512 277.304 361.512C274.847 361.512 272.504 360.378 271.597 357.317C271.408 356.598 271.219 355.729 271.219 355.2C271.219 354.86 271.181 354.482 270.803 354.482C270.501 354.482 270.387 354.935 270.312 355.54C270.274 356.22 270.123 358.677 270.123 360.945C270.123 361.852 270.236 362.041 270.879 362.343C272.58 363.137 274.394 363.439 276.699 363.439L276.775 363.515ZM20.4472 397.115C20.4472 401.121 20.4472 404.409 20.2583 406.148C20.1449 407.357 19.8803 408.038 19.0866 408.227C18.7087 408.302 18.2551 408.378 17.6504 408.378C17.1591 408.378 17.0079 408.491 17.0079 408.718C17.0079 409.02 17.2724 409.134 17.8016 409.134C19.389 409.134 21.8835 409.02 22.8283 409.02C23.8866 409.02 26.4189 409.134 29.0268 409.134C29.4803 409.134 29.7827 409.02 29.7827 408.718C29.7827 408.491 29.5937 408.378 29.1402 408.378C28.5354 408.378 27.6661 408.302 27.0992 408.227C25.8898 408.076 25.6252 407.32 25.5118 406.186C25.3606 404.409 25.3606 401.121 25.3606 397.115V389.82C25.3606 383.546 25.3606 382.375 25.4362 381.052C25.5118 379.616 25.852 378.898 26.9102 378.709C27.4016 378.633 27.7039 378.595 28.1197 378.595C28.5354 378.595 28.7622 378.52 28.7622 378.18C28.7622 377.953 28.4598 377.839 27.9307 377.839C26.4189 377.839 24.0756 377.953 23.0929 377.953C21.9213 377.953 19.4268 377.839 17.915 377.839C17.2724 377.839 16.9701 377.915 16.9701 378.18C16.9701 378.52 17.1969 378.595 17.6126 378.595C18.1039 378.595 18.5953 378.633 19.0488 378.746C19.9181 378.935 20.3339 379.654 20.4095 381.052C20.485 382.375 20.485 383.546 20.485 389.82V397.115H20.4472ZM40.2142 386.117H40.3276C41.0457 386.91 45.4677 392.088 49.8142 396.548C53.9339 400.819 59.0362 406.224 61.5307 408.718C61.9843 409.172 62.4378 409.625 62.8913 409.625C63.2693 409.625 63.4205 409.247 63.4205 408.34L63.874 382.224C63.9118 379.918 64.2142 379.049 65.348 378.709C65.8394 378.595 66.1417 378.595 66.5575 378.595C67.0488 378.595 67.2756 378.482 67.2756 378.217C67.2756 377.877 66.8598 377.839 66.3685 377.839C64.4409 377.839 62.8913 377.953 62.4756 377.953C61.6441 377.953 59.7165 377.839 57.6756 377.839C57.0709 377.839 56.6551 377.877 56.6551 378.217C56.6551 378.482 56.8063 378.595 57.2976 378.595C57.8646 378.595 58.8095 378.595 59.4142 378.86C60.3591 379.276 60.737 380.069 60.7748 382.602L61.1528 401.159H60.9638C60.2835 400.479 54.9165 394.545 52.1953 391.71C46.3748 385.701 40.3276 378.973 39.874 378.444C39.1937 377.688 38.8535 377.159 38.4 377.159C37.9843 377.159 37.8709 377.726 37.8709 378.557L37.5307 403.049C37.4929 406.639 37.3417 407.849 36.2835 408.189C35.7165 408.34 34.9984 408.378 34.5071 408.378C34.0913 408.378 33.8646 408.454 33.8646 408.718C33.8646 409.096 34.2425 409.134 34.7339 409.134C36.8126 409.134 38.6646 409.02 39.0425 409.02C39.7984 409.02 41.3858 409.134 43.9937 409.134C44.5606 409.134 44.9008 409.058 44.9008 408.718C44.9008 408.454 44.674 408.378 44.2205 408.378C43.578 408.378 42.822 408.34 42.1417 408.076C41.348 407.773 40.8189 406.715 40.7433 403.502L40.2898 386.117H40.2142ZM76.0819 397.115C76.0819 400.932 76.0819 404.183 75.8929 405.921C75.7417 407.131 75.5528 408.038 74.7213 408.189C74.3433 408.265 73.8898 408.34 73.285 408.34C72.7937 408.34 72.6425 408.454 72.6425 408.68C72.6425 408.983 72.9071 409.096 73.4362 409.096C74.2299 409.096 75.2504 409.02 76.1953 409.02C77.1402 408.983 78.0095 408.983 78.463 408.983C79.4457 408.983 80.8441 409.096 82.3559 409.247C83.8677 409.361 85.4929 409.512 86.9291 409.512C94.2992 409.512 98.4189 406.564 100.271 404.636C102.501 402.293 104.617 398.324 104.617 393.109C104.617 388.195 102.728 384.756 100.762 382.602C96.4157 377.877 89.7638 377.877 84.8126 377.877C82.4315 377.877 79.937 377.991 78.6898 377.991C77.5937 377.991 75.0614 377.877 72.9449 377.877C72.3402 377.877 72.0756 377.953 72.0756 378.255C72.0756 378.557 72.3024 378.633 72.7559 378.633C73.3228 378.633 74.0032 378.671 74.3055 378.746C75.6283 379.049 75.9307 379.691 76.0063 381.09C76.0819 382.413 76.0819 383.584 76.0819 389.858V397.153V397.115ZM81.0709 389.178C81.0709 385.928 81.0709 382.299 81.1087 380.901C81.1087 380.447 81.222 380.22 81.6 380.069C81.9024 379.918 83.3764 379.767 84.1701 379.767C87.2693 379.767 91.8047 380.258 95.4709 383.887C97.1717 385.587 99.2882 388.989 99.2882 394.243C99.2882 398.513 98.4945 402.255 95.9622 404.561C93.5811 406.715 90.8598 407.546 86.8157 407.546C83.6787 407.546 82.1291 406.677 81.6 405.883C81.2976 405.43 81.1843 403.767 81.1465 402.746C81.1087 401.953 81.0709 398.778 81.0709 394.394V389.178ZM125.027 409.701C135.118 409.701 141.506 402.217 141.506 392.731C141.506 383.244 135.345 377.272 125.443 377.272C113.499 377.272 109.002 386.419 109.002 393.487C109.002 400.819 113.613 409.701 125.027 409.701ZM126.69 407.622C119.055 407.622 114.482 400.781 114.482 392.202C114.482 381.883 119.698 379.238 124.271 379.238C130.809 379.238 135.95 384.983 135.95 394.243C135.95 406.186 129.487 407.622 126.728 407.622H126.69ZM151.597 386.117H151.71C152.428 386.91 156.85 392.088 161.197 396.548C165.317 400.819 170.419 406.224 172.913 408.718C173.367 409.172 173.82 409.625 174.274 409.625C174.652 409.625 174.803 409.247 174.803 408.34L175.257 382.224C175.294 379.918 175.635 379.049 176.731 378.709C177.222 378.595 177.524 378.595 177.94 378.595C178.431 378.595 178.658 378.482 178.658 378.217C178.658 377.877 178.28 377.839 177.751 377.839C175.786 377.839 174.274 377.953 173.858 377.953C173.027 377.953 171.099 377.839 169.058 377.839C168.454 377.839 168.038 377.877 168.038 378.217C168.038 378.482 168.189 378.595 168.68 378.595C169.247 378.595 170.192 378.595 170.797 378.86C171.742 379.276 172.12 380.069 172.157 382.602L172.573 401.159H172.384C171.704 400.479 166.337 394.545 163.616 391.71C157.795 385.701 151.748 378.973 151.294 378.444C150.614 377.688 150.274 377.159 149.82 377.159C149.443 377.159 149.291 377.726 149.291 378.557L148.951 403.049C148.913 406.639 148.762 407.849 147.704 408.189C147.137 408.34 146.419 408.378 145.928 408.378C145.512 408.378 145.285 408.454 145.285 408.718C145.285 409.096 145.663 409.134 146.154 409.134C148.233 409.134 150.085 409.02 150.463 409.02C151.219 409.02 152.806 409.134 155.376 409.134C155.943 409.134 156.283 409.058 156.283 408.718C156.283 408.454 156.057 408.378 155.603 408.378C154.961 408.378 154.205 408.34 153.524 408.076C152.731 407.773 152.202 406.715 152.126 403.502L151.672 386.117H151.597ZM187.465 397.115C187.465 400.932 187.465 404.183 187.276 405.921C187.124 407.131 186.898 408.038 186.104 408.189C185.726 408.265 185.272 408.34 184.668 408.34C184.176 408.34 184.025 408.454 184.025 408.68C184.025 408.983 184.29 409.096 184.819 409.096C185.613 409.096 186.633 409.02 187.578 409.02C188.523 408.983 189.392 408.983 189.846 408.983C191.055 408.983 192.265 409.02 193.965 409.096C195.666 409.134 197.858 409.209 200.844 409.209C202.356 409.209 202.696 409.209 202.998 408.113C203.187 407.282 203.528 404.485 203.528 403.502C203.528 403.087 203.528 402.746 203.225 402.746C202.961 402.746 202.847 402.898 202.772 403.351C202.507 405.052 202.016 405.921 200.995 406.413C199.975 406.904 198.274 406.904 197.254 406.904C193.209 406.904 192.567 406.299 192.491 403.427C192.454 402.217 192.491 398.438 192.491 397.002V393.751C192.491 393.487 192.529 393.335 192.718 393.335C193.663 393.335 197.594 393.373 198.387 393.449C199.861 393.6 200.428 394.243 200.617 395.074C200.731 395.603 200.731 396.132 200.769 396.548C200.769 396.775 200.844 396.926 201.146 396.926C201.524 396.926 201.524 396.472 201.524 396.132C201.524 395.83 201.638 394.205 201.676 393.373C201.827 391.257 201.978 390.614 201.978 390.35C201.978 390.085 201.865 390.009 201.713 390.009C201.524 390.009 201.335 390.236 201.071 390.539C200.693 390.954 200.126 391.068 199.143 391.143C198.236 391.219 193.663 391.219 192.794 391.219C192.567 391.219 192.529 391.068 192.529 390.765V380.296C192.529 379.994 192.605 379.88 192.794 379.88C193.587 379.88 197.783 379.956 198.463 380.031C200.466 380.296 200.844 380.787 201.146 381.506C201.335 381.997 201.373 382.715 201.373 382.98C201.373 383.357 201.449 383.546 201.751 383.546C202.016 383.546 202.129 383.282 202.167 383.093C202.243 382.602 202.318 380.787 202.356 380.372C202.469 378.482 202.658 377.991 202.658 377.688C202.658 377.499 202.62 377.31 202.431 377.31C202.243 377.31 202.016 377.424 201.789 377.461C201.487 377.537 200.844 377.613 200.088 377.726C199.332 377.764 191.395 377.764 190.148 377.764C189.581 377.764 188.674 377.726 187.654 377.688C186.671 377.688 185.499 377.65 184.441 377.65C183.836 377.65 183.572 377.726 183.572 378.028C183.572 378.331 183.798 378.406 184.252 378.406C184.819 378.406 185.499 378.444 185.802 378.52C187.124 378.822 187.427 379.465 187.502 380.863C187.578 382.186 187.578 383.357 187.578 389.631V396.926L187.465 397.115Z" fill="white"/>
<path d="M0 489.222H286.828V491.339H0V489.222Z" fill="white"/>
<path d="M188.107 470.854C188.145 472.29 187.389 473.272 185.802 473.802C185.613 474.293 185.424 474.671 185.235 474.86C184.97 475.162 184.554 475.313 184.063 475.351C183.723 475.389 183.383 475.351 183.005 475.313C182.324 475.2 181.493 475.087 180.51 474.898C180.246 474.86 180.057 474.671 180.019 474.368C180.057 474.028 180.397 473.839 181.002 473.802C181.833 473.764 183.043 473.613 184.63 473.348C185.235 473.197 185.65 472.857 185.915 472.29C186.066 471.987 186.142 471.647 186.142 471.231C186.142 470.476 185.764 469.153 185.046 467.263C184.328 465.411 183.987 464.164 184.025 463.559C184.101 462.085 185.461 461.027 187.994 460.422C188.258 460.346 188.372 460.46 188.372 460.724C188.372 460.876 188.258 460.989 188.107 461.065C186.86 461.631 186.255 462.312 186.255 463.143C186.255 463.483 186.293 463.861 186.406 464.353C186.52 464.844 186.86 466.016 187.427 467.83C187.843 469.153 188.069 470.173 188.069 470.854H188.107Z" fill="white"/>
<path d="M190.866 460.535C190.866 461.065 190.715 461.934 190.45 463.143C190.337 463.559 190.224 463.824 190.11 463.937C190.072 464.013 189.846 464.088 189.506 464.202C189.09 464.353 188.825 464.466 188.712 464.466C188.561 464.466 188.447 464.353 188.447 464.088C188.447 463.975 188.447 463.786 188.523 463.559C188.787 462.387 188.901 461.556 188.825 461.102C188.75 460.649 188.901 460.346 189.203 460.233C189.77 459.931 190.148 459.78 190.299 459.78C190.639 459.78 190.828 460.044 190.828 460.535H190.866Z" fill="white"/>
<path d="M180.964 462.954C179.906 466.016 179.187 468.586 178.772 470.627C178.961 470.476 179.187 470.211 179.452 469.871C179.717 469.531 179.906 469.304 179.981 469.266C180.132 469.039 180.321 468.926 180.51 468.926C180.661 468.926 180.775 469.002 180.775 469.191C180.775 469.304 180.737 469.417 180.624 469.569C179.528 471.232 178.809 472.895 178.469 474.595C178.356 475.087 178.205 475.313 178.016 475.313C177.827 475.313 177.449 475.124 176.92 474.746C176.617 474.52 176.428 474.331 176.391 474.217C176.353 474.066 176.353 473.802 176.391 473.424C176.882 470.4 177.487 467.868 178.205 465.827C177.222 467.528 175.861 469.38 174.123 471.42C172.611 473.197 171.515 474.331 170.872 474.822C170.381 475.162 170.041 475.351 169.776 475.351C169.587 475.351 169.247 475.162 168.831 474.822C168.227 474.444 167.924 473.915 167.924 473.235C167.924 473.121 167.924 472.97 167.962 472.781C168.151 471.005 168.907 468.964 170.192 466.583C171.477 464.239 172.951 462.236 174.614 460.649C175.143 460.12 175.635 459.855 176.05 459.893C176.466 459.931 177.26 460.46 178.431 461.594C178.545 461.707 178.583 461.783 178.583 461.896C178.583 462.085 178.469 462.198 178.205 462.198C178.129 462.198 178.016 462.198 177.94 462.161C177.109 461.783 176.466 461.82 175.975 462.198C174.879 463.03 173.707 464.466 172.384 466.545C170.872 468.926 169.965 471.08 169.625 473.008C169.625 473.083 169.587 473.159 169.587 473.235C169.587 473.537 169.701 473.688 169.928 473.688C170.306 473.688 170.797 473.424 171.326 472.857C172.611 471.572 174.009 469.909 175.483 467.943C176.995 465.902 177.978 464.353 178.394 463.295C178.696 462.539 178.885 461.972 178.998 461.669C179.15 461.14 179.301 460.876 179.49 460.876C179.641 460.876 180.057 461.14 180.699 461.594C180.964 461.783 181.115 461.972 181.115 462.161C181.153 462.312 181.077 462.539 180.964 462.917V462.954Z" fill="white"/>
<path d="M170.419 451.994C170.759 452.183 170.91 452.372 170.91 452.598C170.91 452.75 170.797 452.825 170.57 452.825C170.532 452.825 170.457 452.825 170.343 452.787C170.23 452.75 170.192 452.75 170.117 452.75C169.663 452.75 169.134 453.241 168.529 454.224C167.962 455.093 167.206 457.02 166.224 460.006C166.148 460.271 166.11 460.422 166.11 460.46C166.148 460.535 166.299 460.611 166.564 460.611C167.244 460.649 168.151 460.649 169.285 460.535C169.663 460.498 169.852 460.687 169.852 461.065C169.852 461.329 169.701 461.48 169.398 461.556C169.172 461.594 167.887 461.707 165.581 461.896C164.183 466.091 163.351 469.644 163.049 472.554C163.049 472.706 163.049 472.857 163.049 472.97C163.049 473.386 163.162 473.575 163.351 473.575C163.654 473.575 164.598 472.781 166.186 471.232C166.375 471.043 166.564 470.929 166.715 470.929C166.866 470.929 166.942 471.005 166.98 471.118C167.017 471.269 166.98 471.42 166.828 471.609C165.883 472.895 164.976 473.991 164.069 474.898C163.691 475.276 163.389 475.465 163.124 475.465C162.86 475.465 162.482 475.276 161.953 474.822C161.272 474.633 160.97 474.293 160.97 473.726C160.97 473.65 160.97 473.537 161.008 473.424C161.424 470.362 162.255 466.545 163.502 462.009C162.898 461.934 162.331 461.858 161.839 461.745C161.613 461.707 161.499 461.556 161.499 461.329C161.499 461.065 161.613 460.876 161.839 460.838C162.066 460.8 162.482 460.649 163.124 460.422C163.502 460.309 163.88 460.12 164.22 459.893C165.43 455.924 166.413 453.354 167.131 452.183C167.546 451.502 167.962 451.2 168.416 451.2C168.869 451.2 169.512 451.427 170.343 451.918L170.419 451.994Z" fill="white"/>
<path d="M158.816 462.728C158.551 464.353 157.833 467.036 156.661 470.778C157.002 470.476 157.455 469.909 158.06 469.077C158.135 468.964 158.211 468.926 158.287 468.926C158.476 468.926 158.513 469.077 158.362 469.417C158.324 469.531 157.833 470.362 156.926 471.874C156.246 473.008 155.717 474.028 155.414 474.935C155.301 475.2 155.112 475.351 154.847 475.351C154.583 475.351 154.205 475.2 153.713 474.935C153.411 474.784 153.26 474.633 153.26 474.557C153.26 474.482 153.335 474.331 153.449 474.104C154.091 472.97 154.772 471.08 155.528 468.397C156.246 465.827 156.661 463.899 156.737 462.614C156.775 462.085 156.699 461.82 156.586 461.82C156.472 461.82 156.321 461.972 156.019 462.236L154.961 463.257C154.583 463.635 154.394 463.635 154.394 463.332C154.394 463.219 154.431 463.106 154.545 462.954C155.074 462.161 155.679 461.405 156.283 460.724C156.472 460.535 156.661 460.422 156.813 460.422C157.002 460.422 157.266 460.535 157.606 460.8C158.135 460.951 158.438 461.027 158.476 461.065C158.74 461.216 158.854 461.556 158.854 462.009C158.854 462.236 158.816 462.463 158.778 462.765L158.816 462.728Z" fill="white"/>
<path d="M161.235 454.866C161.424 455.017 161.499 455.168 161.499 455.357C161.499 455.698 161.008 456.227 160.025 456.983C159.383 457.474 158.74 457.625 158.135 457.474C157.795 457.398 157.493 457.285 157.228 457.096C157.153 457.02 157.077 456.945 157.039 456.869C157.002 456.794 157.002 456.718 157.002 456.68C157.039 456.643 157.115 456.605 157.228 456.643C158.287 455.66 158.967 454.98 159.307 454.564C159.572 454.261 159.761 454.11 159.874 454.11C160.101 454.11 160.517 454.375 161.235 454.866Z" fill="white"/>
<path d="M152.92 447.043C153.071 447.156 153.146 447.269 153.146 447.42C153.146 447.647 152.995 447.798 152.731 447.798C152.617 447.798 152.504 447.761 152.391 447.685C151.861 447.383 151.446 447.231 151.181 447.231C150.463 447.231 149.669 447.987 148.8 449.424C145.701 454.639 143.433 461.518 142.035 470.022C143.244 467.906 144.113 466.431 144.718 465.562C145.928 463.748 147.175 462.274 148.46 461.065C149.065 460.498 149.631 460.195 150.123 460.195C150.387 460.195 150.765 460.346 151.294 460.687C152.315 461.178 152.769 461.934 152.693 462.954C152.504 465.26 151.937 467.565 151.03 469.795C150.123 471.987 149.065 473.726 147.817 474.973C147.477 475.313 147.137 475.502 146.759 475.502C146.003 475.502 144.983 474.633 143.66 472.857C143.509 472.668 143.433 472.479 143.433 472.328C143.433 472.139 143.546 472.063 143.735 472.063C143.924 472.063 144.113 472.139 144.302 472.328C144.983 472.932 145.55 473.235 146.041 473.235C146.494 473.235 146.948 472.932 147.402 472.365C148.195 471.307 148.913 469.871 149.556 468.057C150.312 466.016 150.652 464.202 150.652 462.576C150.652 461.972 150.463 461.631 150.047 461.631C149.82 461.631 149.556 461.783 149.291 462.009C147.855 463.294 146.419 465.071 144.983 467.414C143.433 469.909 142.337 472.328 141.619 474.671C141.506 475.124 141.317 475.351 141.128 475.351C141.014 475.351 140.901 475.313 140.75 475.2C140.183 474.784 139.843 474.557 139.767 474.482C139.54 474.255 139.427 473.915 139.427 473.537C139.427 473.348 139.465 473.121 139.502 472.857C140.863 465.222 142.564 458.759 144.68 453.392C146.268 449.348 147.704 446.74 148.951 445.531C149.291 445.228 149.594 445.039 149.934 445.039C150.274 445.039 150.652 445.228 151.143 445.644C151.71 446.135 152.315 446.627 152.882 447.118L152.92 447.043Z" fill="white"/>
<path d="M137.877 463.559C137.839 464.617 137.613 466.054 137.121 467.792C136.365 470.551 135.307 472.705 133.946 474.255C133.228 475.049 132.397 475.465 131.528 475.465C131.187 475.465 130.734 475.389 130.205 475.238C129.109 475.162 128.239 474.822 127.559 474.18C126.841 473.499 126.463 472.592 126.539 471.496C126.576 470.211 126.992 468.472 127.786 466.167C128.655 463.672 129.562 461.896 130.507 460.8C130.961 460.271 131.339 460.006 131.603 460.006C131.981 460.006 132.624 460.422 133.493 461.254C133.72 461.14 134.249 460.913 134.967 460.573C135.345 460.422 135.647 460.384 135.836 460.384C136.29 460.384 136.781 460.8 137.348 461.707C137.688 462.236 137.877 462.841 137.839 463.483L137.877 463.559ZM135.874 464.088C135.95 463.294 135.987 462.803 135.987 462.576C135.987 462.085 135.836 461.82 135.534 461.82C135.42 461.82 135.269 461.858 135.08 461.896L132.397 463.03C132.094 463.143 131.906 463.219 131.868 463.219C131.792 463.219 131.679 463.105 131.603 462.879C130.923 463.748 130.318 464.957 129.751 466.545C129.298 467.792 128.995 468.926 128.806 469.909C128.693 470.589 128.617 471.194 128.617 471.723C128.617 473.575 129.146 474.482 130.243 474.406C130.696 474.406 131.15 474.217 131.641 473.877C132.624 473.197 133.493 471.836 134.362 469.795C135.156 467.868 135.647 465.94 135.836 464.05L135.874 464.088Z" fill="white"/>
<path d="M126.614 461.405C126.614 462.992 126.425 464.466 126.009 465.902C125.896 466.318 125.707 466.545 125.48 466.545C125.329 466.545 124.951 466.318 124.422 465.827C124.157 465.6 124.082 465.26 124.195 464.806C124.535 463.71 124.687 462.841 124.687 462.198C124.687 461.972 124.649 461.858 124.535 461.858C124.384 461.858 124.157 462.085 123.855 462.501C121.436 465.751 119.66 469.38 118.488 473.424C118.11 474.709 117.77 475.351 117.506 475.351C117.392 475.351 116.939 475.124 116.145 474.709C115.767 474.52 115.616 474.104 115.767 473.537C116.674 469.417 117.657 465.902 118.715 463.068C117.846 464.013 117.317 464.655 117.09 464.995C117.014 465.146 116.863 465.222 116.712 465.222C116.523 465.222 116.409 465.146 116.409 464.957C116.409 464.844 116.447 464.731 116.561 464.617C117.128 463.899 117.883 462.841 118.828 461.367C119.131 460.838 119.395 460.573 119.698 460.573C119.887 460.573 120.302 460.724 120.945 461.065C121.285 461.254 121.361 461.518 121.096 461.82C120.831 462.161 120.378 463.408 119.66 465.487C118.98 467.528 118.526 469.153 118.261 470.287C119.849 466.658 121.625 463.446 123.591 460.687C123.969 460.157 124.271 459.893 124.498 459.893C124.687 459.893 124.989 460.044 125.329 460.309C125.82 460.384 126.123 460.46 126.236 460.535C126.425 460.687 126.539 460.989 126.539 461.405H126.614Z" fill="white"/>
<path d="M116.939 456.529C116.636 457.814 115.843 459.477 114.595 461.48C113.348 463.483 112.252 464.844 111.307 465.524C110.665 466.016 110.022 466.243 109.38 466.243C109.002 466.243 108.132 465.94 106.734 465.373C106.469 465.26 106.318 465.109 106.318 464.957C106.318 464.731 106.62 464.58 107.263 464.58C108.321 464.58 109.115 464.353 109.644 463.899C110.74 463.03 111.798 461.82 112.781 460.309C114.066 458.381 114.784 456.491 115.049 454.639C115.2 453.619 114.86 453.014 114.028 452.825C113.65 452.75 113.272 452.75 112.894 452.825C111.118 452.901 109.38 453.317 107.717 454.035C105.789 461.254 104.013 467.036 102.425 471.345C102.501 471.307 102.879 471.118 103.446 470.74C103.786 470.551 104.05 470.438 104.239 470.476C104.58 470.551 104.92 470.891 105.222 471.534C105.487 472.063 105.6 472.441 105.6 472.668C105.6 473.008 105.411 473.121 104.995 473.083C104.693 473.046 104.239 473.235 103.559 473.575C102.841 473.991 102.198 474.444 101.707 474.973C101.443 475.238 101.178 475.351 100.913 475.351C100.535 475.351 100.082 475.087 99.515 474.557C99.1748 474.217 99.0236 473.915 99.0614 473.65C99.0992 473.461 99.2882 473.31 99.6283 473.197C102.425 466.469 104.542 460.309 105.902 454.753C101.556 456.756 99.4016 458.646 99.4016 460.422C99.4016 460.687 99.4394 460.913 99.515 461.178C99.5528 461.254 99.6661 461.594 99.8551 462.085C99.8929 462.198 99.9307 462.312 99.9307 462.425C99.9307 462.765 99.8173 462.917 99.5528 462.917C99.2126 462.917 98.4945 461.858 97.5118 459.78C97.3606 459.477 97.285 459.213 97.285 458.91C97.285 458.192 97.7008 457.436 98.5701 456.605C99.137 456.038 100.271 455.282 101.896 454.299C103.635 453.279 105.184 452.485 106.583 451.994C106.734 451.389 106.772 450.935 106.772 450.557C106.772 450.066 106.885 449.839 107.112 449.839C107.414 449.839 107.981 450.293 108.737 451.162C110.627 450.595 111.912 450.293 112.592 450.331C113.877 450.368 114.784 451.049 115.313 452.447C115.994 452.976 116.447 453.392 116.712 453.694C117.014 454.072 117.165 454.526 117.165 455.017C117.165 455.395 117.09 455.887 116.939 456.529Z" fill="white"/>
<path d="M85.7197 470.816C85.7953 470.967 85.6819 471.383 85.3417 472.025C84.3968 473.915 83.6031 475.843 82.9984 477.77C83.2252 477.883 83.1496 478.11 82.6961 478.375C82.2803 478.677 81.8646 478.791 81.4488 478.715C81.2598 478.677 81.1842 478.526 81.1842 478.261C81.1842 477.921 81.3732 477.052 81.7134 475.729C82.2425 473.802 82.7339 472.517 83.1874 471.874C83.4142 471.609 83.6409 471.42 83.9811 471.269C85.0394 470.891 85.6063 470.74 85.6441 470.854L85.7197 470.816Z" fill="white"/>
<path d="M79.0299 470.854C79.0677 472.29 78.3118 473.272 76.7244 473.802C76.5354 474.293 76.3465 474.671 76.1953 474.86C75.9307 475.162 75.515 475.313 75.0236 475.351C74.6835 475.389 74.3433 475.351 73.9653 475.313C73.285 475.2 72.4535 475.087 71.4709 474.898C71.2063 474.86 71.0173 474.671 70.9795 474.368C71.0173 474.028 71.3575 473.839 71.9622 473.802C72.7937 473.764 74.0031 473.613 75.5905 473.348C76.1953 473.197 76.611 472.857 76.8756 472.29C77.0268 471.987 77.1024 471.647 77.1024 471.231C77.1024 470.476 76.7244 469.153 76.0063 467.263C75.2882 465.411 74.948 464.164 75.0236 463.559C75.0992 462.085 76.4598 461.027 78.9921 460.422C79.2567 460.346 79.3701 460.46 79.3701 460.724C79.3701 460.876 79.2945 460.989 79.1055 461.065C77.8583 461.631 77.2535 462.312 77.2535 463.143C77.2535 463.483 77.2913 463.861 77.4425 464.353C77.5559 464.844 77.8961 466.016 78.463 467.83C78.8787 469.153 79.1055 470.173 79.1055 470.854H79.0299Z" fill="white"/>
<path d="M81.789 460.535C81.789 461.065 81.6378 461.934 81.3732 463.143C81.2598 463.559 81.1465 463.824 81.0331 463.937C80.9575 464.013 80.7685 464.088 80.4283 464.202C80.0126 464.353 79.748 464.466 79.6346 464.466C79.4835 464.466 79.3701 464.353 79.3701 464.088C79.3701 463.975 79.3701 463.786 79.4457 463.559C79.7102 462.387 79.8236 461.556 79.748 461.102C79.6724 460.649 79.8236 460.346 80.126 460.233C80.6929 459.931 81.0709 459.78 81.222 459.78C81.5622 459.78 81.7512 460.044 81.7512 460.535H81.789Z" fill="white"/>
<path d="M71.8488 462.954C70.7906 466.016 70.0346 468.586 69.6567 470.627C69.8079 470.476 70.0724 470.211 70.337 469.871C70.6394 469.531 70.7906 469.304 70.8661 469.266C71.0173 469.039 71.2063 468.926 71.3953 468.926C71.5465 468.926 71.6598 469.002 71.6598 469.191C71.6598 469.304 71.622 469.417 71.5087 469.569C70.4126 471.232 69.6945 472.895 69.3543 474.595C69.2409 475.087 69.0898 475.313 68.9008 475.313C68.7118 475.313 68.3339 475.124 67.8047 474.746C67.5024 474.52 67.3134 474.331 67.2756 474.217C67.2 474.066 67.2 473.802 67.2756 473.424C67.7669 470.4 68.3717 467.868 69.0898 465.827C68.1071 467.528 66.7087 469.38 65.0079 471.42C63.4961 473.197 62.4 474.331 61.7575 474.822C61.2661 475.162 60.8882 475.351 60.6614 475.351C60.4724 475.351 60.1323 475.162 59.7165 474.822C59.1118 474.444 58.8094 473.915 58.8094 473.235C58.8094 473.121 58.8094 472.97 58.8472 472.781C59.074 471.005 59.7921 468.964 61.0772 466.583C62.3622 464.239 63.8362 462.236 65.537 460.649C66.0661 460.12 66.5575 459.855 66.9732 459.893C67.389 459.931 68.1827 460.46 69.3543 461.594C69.4677 461.707 69.5055 461.783 69.5055 461.896C69.5055 462.085 69.3921 462.198 69.1276 462.198C69.052 462.198 68.9386 462.198 68.863 462.161C68.0315 461.783 67.389 461.82 66.8976 462.198C65.8394 463.03 64.6299 464.466 63.3071 466.545C61.7953 468.926 60.8882 471.08 60.548 473.008C60.548 473.083 60.548 473.159 60.548 473.235C60.548 473.537 60.6614 473.688 60.8882 473.688C61.2661 473.688 61.7575 473.424 62.2866 472.857C63.5717 471.572 64.9701 469.909 66.4441 467.943C67.9559 465.902 68.9386 464.353 69.3543 463.295C69.6567 462.539 69.8835 461.972 69.9591 461.669C70.1102 461.14 70.2614 460.876 70.4504 460.876C70.6394 460.876 71.0173 461.14 71.6598 461.594C71.9244 461.783 72.0756 461.972 72.0756 462.161C72.1134 462.312 72.0378 462.539 71.9244 462.917L71.8488 462.954Z" fill="white"/>
<path d="M61.3417 451.994C61.6819 452.183 61.8331 452.372 61.8331 452.598C61.8331 452.75 61.7197 452.825 61.4929 452.825C61.4551 452.825 61.3795 452.825 61.2661 452.787C61.1528 452.75 61.0772 452.75 61.0394 452.75C60.5858 452.75 60.0567 453.241 59.452 454.224C58.885 455.093 58.1291 457.02 57.1465 460.006C57.0709 460.271 57.0331 460.422 57.0331 460.46C57.0709 460.535 57.222 460.611 57.4866 460.611C58.1669 460.649 59.074 460.649 60.2079 460.535C60.5858 460.498 60.7748 460.687 60.7748 461.065C60.7748 461.329 60.6236 461.48 60.3213 461.556C60.0945 461.594 58.8094 461.707 56.5039 461.896C55.1055 466.091 54.274 469.644 53.9717 472.554C53.9717 472.706 53.9717 472.857 53.9717 472.97C53.9717 473.386 54.085 473.575 54.274 473.575C54.5764 473.575 55.5213 472.781 57.0709 471.232C57.2598 471.043 57.4488 470.929 57.6 470.929C57.7512 470.929 57.8268 471.005 57.8646 471.118C57.9024 471.269 57.8268 471.42 57.7134 471.609C56.7685 472.895 55.8614 473.991 54.9543 474.898C54.5764 475.276 54.274 475.465 54.0094 475.465C53.7449 475.465 53.3669 475.276 52.8378 474.822C52.1953 474.633 51.8551 474.293 51.8551 473.726C51.8551 473.65 51.8551 473.537 51.8929 473.424C52.3087 470.362 53.1402 466.545 54.3874 462.009C53.7827 461.934 53.2157 461.858 52.7244 461.745C52.4976 461.707 52.3843 461.556 52.3843 461.329C52.3843 461.065 52.4976 460.876 52.7244 460.838C52.9512 460.8 53.3669 460.649 54.0094 460.422C54.3874 460.309 54.7654 460.12 55.1055 459.893C56.3528 455.924 57.2976 453.354 58.0157 452.183C58.4315 451.502 58.8472 451.2 59.3008 451.2C59.7165 451.2 60.3969 451.427 61.2283 451.918L61.3417 451.994Z" fill="white"/>
<path d="M49.7008 462.728C49.4362 464.353 48.7181 467.036 47.5465 470.778C47.8866 470.476 48.3402 469.909 48.9449 469.077C49.0205 468.964 49.0961 468.926 49.1717 468.926C49.3606 468.926 49.3984 469.077 49.2472 469.417C49.1717 469.531 48.7181 470.362 47.811 471.874C47.1307 473.008 46.6016 474.028 46.2992 474.935C46.1858 475.2 45.9969 475.351 45.7323 475.351C45.4677 475.351 45.0898 475.2 44.5984 474.935C44.2961 474.784 44.1449 474.633 44.1449 474.557C44.1449 474.482 44.2205 474.331 44.3339 474.104C44.9764 472.97 45.6567 471.08 46.4126 468.397C47.1307 465.827 47.5465 463.899 47.622 462.614C47.6598 462.085 47.622 461.82 47.4709 461.82C47.3575 461.82 47.2063 461.972 46.9039 462.236L45.8457 463.257C45.4677 463.635 45.2787 463.635 45.2787 463.332C45.2787 463.219 45.3543 463.106 45.4299 462.954C45.9591 462.161 46.5638 461.405 47.1685 460.724C47.3575 460.535 47.5465 460.422 47.6976 460.422C47.8866 460.422 48.1512 460.535 48.5291 460.8C49.0583 460.951 49.3606 461.027 49.3984 461.065C49.663 461.216 49.8142 461.556 49.8142 462.009C49.8142 462.236 49.7764 462.463 49.7386 462.765L49.7008 462.728Z" fill="white"/>
<path d="M52.1575 454.866C52.3465 455.017 52.422 455.168 52.422 455.357C52.422 455.698 51.9307 456.227 50.948 456.983C50.3055 457.474 49.663 457.625 49.0583 457.474C48.7181 457.398 48.4157 457.285 48.1512 457.096C48.0756 457.02 48 456.945 47.9622 456.869C47.9244 456.794 47.9244 456.718 47.9244 456.68C47.9622 456.643 48.0378 456.605 48.1512 456.643C49.2094 455.66 49.8898 454.98 50.2299 454.564C50.4945 454.261 50.6835 454.11 50.7968 454.11C50.9858 454.11 51.4394 454.375 52.1197 454.866H52.1575Z" fill="white"/>
<path d="M44.6362 461.405C44.6362 462.992 44.4472 464.466 44.0315 465.902C43.9181 466.318 43.7291 466.545 43.5024 466.545C43.3512 466.545 42.9732 466.318 42.4441 465.827C42.1795 465.6 42.1039 465.26 42.2173 464.806C42.5575 463.71 42.7087 462.841 42.7087 462.198C42.7087 461.972 42.6709 461.858 42.5575 461.858C42.4063 461.858 42.1795 462.085 41.8772 462.501C39.4583 465.751 37.6819 469.38 36.5102 473.424C36.1323 474.709 35.7921 475.351 35.5276 475.351C35.4142 475.351 34.9606 475.124 34.1669 474.709C33.789 474.52 33.6378 474.104 33.789 473.537C34.6961 469.417 35.6787 465.902 36.737 463.068C35.8677 464.013 35.3386 464.655 35.1118 464.995C35.0362 465.146 34.885 465.222 34.7339 465.222C34.5449 465.222 34.4315 465.146 34.4315 464.957C34.4315 464.844 34.4693 464.731 34.5827 464.617C35.1496 463.899 35.9055 462.841 36.8504 461.367C37.1528 460.838 37.4173 460.573 37.7197 460.573C37.9087 460.573 38.3622 460.724 38.9669 461.065C39.3071 461.254 39.3827 461.518 39.1559 461.82C38.8913 462.161 38.4378 463.408 37.7197 465.487C37.0394 467.528 36.5858 469.153 36.3213 470.287C37.9087 466.658 39.685 463.446 41.6504 460.687C42.0284 460.157 42.3307 459.893 42.5575 459.893C42.7843 459.893 43.0488 460.044 43.4268 460.309C43.9181 460.384 44.2205 460.46 44.3339 460.535C44.5228 460.687 44.6362 460.989 44.6362 461.405Z" fill="white"/>
<path d="M32.3528 469.795C29.5559 473.537 27.5905 475.389 26.4567 475.389C25.9276 475.389 25.2472 475.011 24.4157 474.217C23.5465 473.802 23.1307 473.235 23.1307 472.517C23.1307 472.403 23.1307 472.252 23.1685 472.101C23.3575 470.476 23.811 468.661 24.4157 466.658C24 466.431 23.7732 466.205 23.7732 466.016C23.7732 465.827 23.8866 465.751 24.1512 465.751C24.3402 465.751 24.5291 465.789 24.7181 465.902C25.7386 463.521 26.6835 461.82 27.4772 460.8C28.0063 460.12 28.4976 459.78 28.9134 459.78C29.1024 459.78 29.5937 459.968 30.3496 460.309C30.274 459.931 30.3874 459.742 30.652 459.666C30.652 459.666 30.9165 459.666 31.4457 459.666C31.937 459.666 32.2016 459.742 32.2016 459.931C32.2016 459.968 32.1638 460.082 32.126 460.233C32.0882 460.384 32.0882 460.535 32.0882 460.687C32.0882 461.14 32.0882 461.669 32.0882 462.274C32.0882 462.917 32.126 463.332 32.126 463.559C32.126 465.033 31.748 466.091 30.9543 466.658C30.2362 467.187 29.4425 467.452 28.5354 467.452C28.0819 467.452 27.2882 467.301 26.1921 467.074C26.0031 467.452 25.7764 468.17 25.5118 469.266C25.2094 470.627 25.0583 471.836 25.0583 472.894C25.0583 473.499 25.2472 473.839 25.6252 473.839C25.7764 473.839 25.9276 473.802 26.1543 473.726C27.4772 473.235 29.3669 471.723 31.748 469.228C31.8992 469.077 32.0504 469.002 32.2016 469.002C32.4283 469.002 32.5417 469.115 32.5417 469.342C32.5417 469.493 32.5039 469.606 32.3528 469.757V469.795ZM30.3496 461.858C30.3496 461.405 30.2362 461.178 30.0472 461.178C29.9339 461.178 29.7449 461.254 29.4803 461.48C28.3465 462.425 27.3638 464.088 26.4945 466.431C26.7213 466.469 27.137 466.507 27.7039 466.545C28.6488 466.583 29.3291 466.356 29.7827 465.865C30.1228 465.524 30.3118 464.92 30.3496 464.088C30.3118 464.693 30.3118 463.975 30.3118 461.858H30.3496Z" fill="white"/>
<path d="M284.107 462.954C283.049 466.016 282.293 468.586 281.915 470.627C282.066 470.476 282.331 470.211 282.595 469.871C282.898 469.531 283.049 469.304 283.124 469.266C283.276 469.039 283.465 468.926 283.654 468.926C283.843 468.926 283.918 469.002 283.918 469.191C283.918 469.304 283.88 469.417 283.767 469.569C282.671 471.232 281.953 472.895 281.613 474.595C281.499 475.087 281.348 475.313 281.159 475.313C280.97 475.313 280.592 475.124 280.063 474.746C279.761 474.52 279.572 474.331 279.534 474.217C279.458 474.066 279.458 473.802 279.534 473.424C280.025 470.4 280.63 467.868 281.348 465.827C280.365 467.528 278.967 469.38 277.266 471.42C275.754 473.197 274.658 474.331 274.016 474.822C273.524 475.162 273.146 475.351 272.92 475.351C272.731 475.351 272.391 475.162 271.975 474.822C271.37 474.444 271.068 473.915 271.068 473.235C271.068 473.121 271.068 472.97 271.106 472.781C271.294 471.005 272.05 468.964 273.335 466.583C274.62 464.239 276.094 462.236 277.795 460.649C278.324 460.12 278.816 459.855 279.231 459.893C279.647 459.931 280.441 460.46 281.613 461.594C281.726 461.707 281.764 461.783 281.764 461.896C281.764 462.085 281.65 462.198 281.386 462.198C281.31 462.198 281.197 462.198 281.121 462.161C280.328 461.783 279.647 461.82 279.156 462.198C278.06 463.03 276.888 464.466 275.565 466.545C274.054 468.926 273.146 471.08 272.806 473.008C272.806 473.083 272.806 473.159 272.806 473.235C272.806 473.537 272.92 473.688 273.146 473.688C273.524 473.688 274.016 473.424 274.545 472.857C275.83 471.572 277.228 469.909 278.702 467.943C280.214 465.902 281.159 464.353 281.613 463.295C281.915 462.539 282.104 461.972 282.217 461.669C282.369 461.14 282.52 460.876 282.709 460.876C282.86 460.876 283.276 461.14 283.918 461.594C284.183 461.783 284.334 461.972 284.334 462.161C284.372 462.312 284.296 462.539 284.183 462.917L284.107 462.954Z" fill="white"/>
<path d="M270.236 462.728C269.972 464.353 269.254 467.036 268.082 470.778C268.422 470.476 268.876 469.909 269.48 469.077C269.556 468.964 269.632 468.926 269.707 468.926C269.896 468.926 269.934 469.077 269.783 469.417C269.745 469.531 269.254 470.362 268.346 471.874C267.666 473.008 267.137 474.028 266.835 474.935C266.721 475.2 266.532 475.351 266.268 475.351C266.003 475.351 265.625 475.2 265.134 474.935C264.832 474.784 264.68 474.633 264.68 474.557C264.68 474.482 264.756 474.331 264.869 474.104C265.512 472.97 266.192 471.08 266.948 468.397C267.666 465.827 268.082 463.899 268.157 462.614C268.195 462.085 268.12 461.82 268.006 461.82C267.893 461.82 267.742 461.972 267.439 462.236L266.381 463.257C266.003 463.635 265.814 463.635 265.814 463.332C265.814 463.219 265.852 463.106 265.965 462.954C266.495 462.161 267.099 461.405 267.704 460.724C267.893 460.535 268.082 460.422 268.233 460.422C268.422 460.422 268.687 460.535 269.027 460.8C269.556 460.951 269.858 461.027 269.896 461.065C270.161 461.216 270.274 461.556 270.274 462.009C270.274 462.236 270.236 462.463 270.198 462.765L270.236 462.728Z" fill="white"/>
<path d="M272.655 454.866C272.844 455.017 272.92 455.168 272.92 455.357C272.92 455.698 272.428 456.227 271.446 456.983C270.803 457.474 270.161 457.625 269.556 457.474C269.216 457.398 268.913 457.285 268.649 457.096C268.573 457.02 268.498 456.945 268.46 456.869C268.422 456.794 268.422 456.718 268.422 456.68C268.46 456.643 268.535 456.605 268.649 456.643C269.707 455.66 270.387 454.98 270.728 454.564C270.992 454.261 271.181 454.11 271.294 454.11C271.521 454.11 271.937 454.375 272.655 454.866Z" fill="white"/>
<path d="M266.872 451.994C267.213 452.183 267.364 452.372 267.364 452.598C267.364 452.75 267.25 452.825 267.024 452.825C266.986 452.825 266.91 452.825 266.797 452.787C266.683 452.75 266.646 452.75 266.57 452.75C266.154 452.75 265.587 453.241 264.983 454.224C264.416 455.093 263.66 457.02 262.677 460.006C262.602 460.271 262.564 460.422 262.564 460.46C262.602 460.535 262.753 460.611 263.017 460.611C263.698 460.649 264.605 460.649 265.739 460.535C266.117 460.498 266.306 460.687 266.306 461.065C266.306 461.329 266.154 461.48 265.852 461.556C265.625 461.594 264.34 461.707 262.035 461.896C260.636 466.091 259.805 469.644 259.502 472.554C259.502 472.706 259.502 472.857 259.502 472.97C259.502 473.386 259.616 473.575 259.805 473.575C260.107 473.575 261.052 472.781 262.602 471.232C262.791 471.043 262.98 470.929 263.131 470.929C263.282 470.929 263.357 471.005 263.395 471.118C263.433 471.269 263.357 471.42 263.244 471.609C262.299 472.895 261.392 473.991 260.485 474.898C260.107 475.276 259.805 475.465 259.54 475.465C259.276 475.465 258.898 475.276 258.369 474.822C257.688 474.633 257.386 474.293 257.386 473.726C257.386 473.65 257.386 473.537 257.424 473.424C257.839 470.362 258.671 466.545 259.918 462.009C259.313 461.934 258.746 461.858 258.255 461.745C258.028 461.707 257.915 461.556 257.915 461.329C257.915 461.065 258.028 460.876 258.255 460.838C258.482 460.8 258.898 460.649 259.54 460.422C259.918 460.309 260.296 460.12 260.636 459.893C261.883 455.924 262.828 453.354 263.546 452.183C263.962 451.502 264.378 451.2 264.832 451.2C265.285 451.2 265.928 451.427 266.759 451.918L266.872 451.994Z" fill="white"/>
<path d="M255.231 462.728C254.967 464.353 254.249 467.036 253.077 470.778C253.417 470.476 253.871 469.909 254.476 469.077C254.551 468.964 254.627 468.926 254.702 468.926C254.891 468.926 254.929 469.077 254.778 469.417C254.74 469.531 254.249 470.362 253.342 471.874C252.661 473.008 252.132 474.028 251.83 474.935C251.717 475.2 251.528 475.351 251.263 475.351C250.998 475.351 250.62 475.2 250.129 474.935C249.827 474.784 249.676 474.633 249.676 474.557C249.676 474.482 249.751 474.331 249.865 474.104C250.507 472.97 251.187 471.08 251.943 468.397C252.661 465.827 253.077 463.899 253.191 462.614C253.228 462.085 253.153 461.82 253.039 461.82C252.926 461.82 252.737 461.972 252.472 462.236L251.376 463.257C250.998 463.635 250.809 463.635 250.809 463.332C250.809 463.219 250.847 463.106 250.961 462.954C251.49 462.161 252.094 461.405 252.699 460.724C252.888 460.535 253.077 460.422 253.228 460.422C253.417 460.422 253.682 460.535 254.06 460.8C254.589 460.951 254.891 461.027 254.929 461.065C255.194 461.216 255.307 461.556 255.307 462.009C255.307 462.236 255.269 462.463 255.231 462.765V462.728Z" fill="white"/>
<path d="M257.65 454.866C257.839 455.017 257.915 455.168 257.915 455.357C257.915 455.698 257.424 456.227 256.441 456.983C255.798 457.474 255.156 457.625 254.551 457.474C254.211 457.398 253.909 457.285 253.644 457.096C253.569 457.02 253.493 456.945 253.455 456.869C253.417 456.794 253.417 456.718 253.417 456.68C253.455 456.643 253.531 456.605 253.644 456.643C254.702 455.66 255.383 454.98 255.723 454.564C255.987 454.261 256.176 454.11 256.29 454.11C256.479 454.11 256.932 454.375 257.65 454.866Z" fill="white"/>
<path d="M251.868 451.994C252.208 452.183 252.359 452.372 252.359 452.598C252.359 452.75 252.246 452.825 252.019 452.825C251.981 452.825 251.906 452.825 251.792 452.787C251.679 452.75 251.641 452.75 251.565 452.75C251.112 452.75 250.583 453.241 249.978 454.224C249.411 455.093 248.655 457.02 247.672 460.006C247.597 460.271 247.559 460.422 247.559 460.46C247.597 460.535 247.748 460.611 248.013 460.611C248.693 460.649 249.6 460.649 250.734 460.535C251.112 460.498 251.301 460.687 251.301 461.065C251.301 461.329 251.15 461.48 250.847 461.556C250.62 461.594 249.335 461.707 247.03 461.896C245.631 466.091 244.8 469.644 244.498 472.554C244.498 472.706 244.498 472.857 244.498 472.97C244.498 473.386 244.611 473.575 244.8 473.575C245.102 473.575 246.047 472.781 247.597 471.232C247.786 471.043 247.975 470.929 248.126 470.929C248.277 470.929 248.353 471.005 248.391 471.118C248.428 471.269 248.353 471.42 248.239 471.609C247.294 472.895 246.387 473.991 245.48 474.898C245.102 475.276 244.8 475.465 244.535 475.465C244.271 475.465 243.893 475.276 243.364 474.822C242.721 474.633 242.381 474.293 242.381 473.726C242.381 473.65 242.381 473.537 242.419 473.424C242.835 470.362 243.666 466.545 244.913 462.009C244.309 461.934 243.742 461.858 243.25 461.745C243.024 461.707 242.91 461.556 242.91 461.329C242.91 461.065 243.024 460.876 243.25 460.838C243.477 460.8 243.893 460.649 244.535 460.422C244.913 460.309 245.291 460.12 245.631 459.893C246.879 455.924 247.824 453.354 248.542 452.183C248.957 451.502 249.373 451.2 249.827 451.2C250.28 451.2 250.923 451.427 251.754 451.918L251.868 451.994Z" fill="white"/>
<path d="M238.866 470.854C238.904 472.29 238.148 473.272 236.561 473.802C236.372 474.293 236.183 474.671 235.994 474.86C235.729 475.162 235.313 475.313 234.822 475.351C234.482 475.389 234.142 475.351 233.764 475.313C233.083 475.2 232.252 475.087 231.269 474.898C231.005 474.86 230.816 474.671 230.778 474.368C230.816 474.028 231.156 473.839 231.761 473.802C232.592 473.764 233.802 473.613 235.389 473.348C235.994 473.197 236.409 472.857 236.674 472.29C236.825 471.987 236.901 471.647 236.901 471.231C236.901 470.476 236.523 469.153 235.805 467.263C235.087 465.411 234.746 464.164 234.822 463.559C234.898 462.085 236.258 461.027 238.791 460.422C239.055 460.346 239.169 460.46 239.169 460.724C239.169 460.876 239.093 460.989 238.904 461.065C237.657 461.631 237.052 462.312 237.052 463.143C237.052 463.483 237.09 463.861 237.241 464.353C237.354 464.844 237.694 466.016 238.261 467.83C238.677 469.153 238.904 470.173 238.904 470.854H238.866Z" fill="white"/>
<path d="M241.625 460.535C241.625 461.065 241.474 461.934 241.209 463.143C241.096 463.559 240.983 463.824 240.869 463.937C240.794 464.013 240.605 464.088 240.265 464.202C239.849 464.353 239.584 464.466 239.471 464.466C239.282 464.466 239.206 464.353 239.206 464.088C239.206 463.975 239.206 463.786 239.282 463.559C239.546 462.387 239.66 461.556 239.584 461.102C239.546 460.649 239.66 460.346 239.962 460.233C240.529 459.931 240.907 459.78 241.058 459.78C241.398 459.78 241.587 460.044 241.587 460.535H241.625Z" fill="white"/>
<path d="M232.592 461.896C231.08 464.844 229.909 468.321 229.153 472.328C229.493 471.723 229.871 471.005 230.324 470.098C230.362 469.946 230.476 469.833 230.589 469.833C230.778 469.833 230.854 469.946 230.854 470.173C230.854 470.249 230.854 470.324 230.816 470.4C230.098 472.139 229.606 473.499 229.38 474.444C229.228 475.049 229.039 475.351 228.813 475.351C228.586 475.351 228.132 475.124 227.452 474.633C227.112 474.368 226.961 473.915 227.074 473.235C227.565 470.627 228.132 468.359 228.813 466.431C226.583 470.211 224.731 472.97 223.219 474.746C222.879 475.124 222.539 475.351 222.123 475.351C221.783 475.351 221.405 475.2 220.989 474.935C220.195 474.784 219.78 474.368 219.78 473.65C219.78 473.537 219.78 473.386 219.817 473.235C220.12 469.795 220.687 466.961 221.594 464.693C221.405 464.882 221.102 465.146 220.724 465.524C220.573 465.638 220.46 465.676 220.384 465.638C220.309 465.562 220.309 465.411 220.422 465.222C221.027 464.277 221.405 463.672 221.518 463.37C221.896 462.425 222.236 461.707 222.652 461.216C222.841 460.951 223.068 460.8 223.294 460.8C223.597 460.8 224.05 460.989 224.655 461.367C224.806 461.48 224.92 461.594 224.92 461.707C224.92 461.707 224.806 461.896 224.542 462.312C223.975 463.219 223.37 464.844 222.69 467.112C221.972 469.606 221.631 471.647 221.631 473.197C221.631 473.726 221.745 473.953 221.934 473.953C222.123 473.953 222.425 473.726 222.841 473.272C223.71 472.29 224.995 470.438 226.696 467.717C228.17 465.298 229.077 463.748 229.38 463.03C229.909 461.82 230.324 461.102 230.627 460.876C230.854 460.724 231.005 460.649 231.194 460.649C231.345 460.649 231.647 460.762 232.139 461.027C232.592 461.291 232.819 461.48 232.819 461.594C232.819 461.631 232.781 461.669 232.706 461.745C232.63 461.82 232.554 461.858 232.517 461.934L232.592 461.896Z" fill="white"/>
<path d="M219.175 456.529C218.759 460.006 217.701 463.899 216 468.17C213.997 473.235 212.031 475.729 210.142 475.767C209.008 475.767 207.609 475.162 205.984 473.877C205.871 473.764 205.795 473.613 205.795 473.461C205.795 473.046 205.984 472.819 206.362 472.819C206.438 472.819 206.551 472.857 206.627 472.894C207.609 473.424 208.479 473.688 209.159 473.688C210.671 473.726 212.372 471.383 214.224 466.583C215.962 461.972 216.945 457.852 217.058 454.186C217.096 453.014 216.529 452.409 215.357 452.409C215.169 452.409 214.98 452.409 214.753 452.447C213.846 452.561 212.825 453.317 211.691 454.677C210.406 456.189 209.537 457.89 209.008 459.817C208.932 460.082 208.894 460.309 208.894 460.535C208.894 460.989 209.046 461.367 209.31 461.745C209.575 462.009 209.839 462.312 210.104 462.576C210.217 462.728 210.293 462.841 210.293 462.954C210.293 463.181 210.104 463.294 209.764 463.294C209.613 463.294 209.499 463.257 209.424 463.219C208.441 462.614 207.761 462.123 207.383 461.707C206.929 461.254 206.74 460.724 206.74 460.12C206.74 459.553 206.929 458.797 207.345 457.814C207.95 456.34 208.819 454.942 210.028 453.543C211.162 452.22 212.183 451.351 213.09 450.973C213.506 450.784 214.375 450.898 215.66 451.276C215.735 451.162 215.849 451.124 216.038 451.124C216.491 451.124 217.361 451.578 218.683 452.485C219.288 452.863 219.439 454.224 219.175 456.491V456.529Z" fill="white"/>
<path d="M194.797 470.816C194.872 470.967 194.759 471.383 194.419 472.025C193.474 473.915 192.68 475.843 192.076 477.77C192.34 477.883 192.227 478.11 191.773 478.375C191.357 478.677 190.942 478.791 190.526 478.715C190.375 478.677 190.261 478.526 190.261 478.261C190.261 477.921 190.45 477.052 190.791 475.729C191.32 473.802 191.811 472.517 192.265 471.874C192.454 471.609 192.718 471.42 193.02 471.269C194.079 470.891 194.646 470.74 194.683 470.854L194.797 470.816Z" fill="white"/>
<path d="M26.9858 451.994C27.137 452.22 27.2126 452.409 27.2126 452.598C27.2126 452.825 26.7213 453.317 25.7008 453.997C24.3024 455.735 22.3748 458.683 19.9559 462.879C17.348 467.376 15.5717 470.891 14.5512 473.537C14.589 473.802 14.6268 474.028 14.6268 474.142C14.6268 474.557 14.2488 474.898 13.5307 475.276C13.2283 475.427 13.0016 475.502 12.7748 475.502C12.4724 475.502 12.0945 475.238 11.6409 474.671C11.452 474.444 11.3764 474.217 11.3764 473.991C11.3764 473.65 11.5276 473.31 11.8677 473.008C11.7921 469.002 11.3008 465.033 10.3181 461.065C9.44882 457.55 8.54174 455.055 7.52126 453.543C7.18111 453.014 6.72756 452.75 6.12284 452.75C5.48032 452.75 4.61103 453.203 3.43937 454.11C3.32599 454.186 3.17481 454.261 2.98583 454.261C2.64567 454.261 2.49449 454.148 2.49449 453.883C2.49449 453.732 2.57008 453.581 2.75906 453.392C3.74174 452.372 4.95118 451.389 6.4252 450.557C6.95433 450.255 7.37008 450.104 7.67244 450.104C8.20158 450.104 8.73071 450.52 9.25985 451.313C11.6032 454.904 13.2661 461.329 14.1732 470.551C14.9669 468.85 16.5165 465.94 18.7465 461.82C20.8252 458.003 21.9969 455.887 22.2614 455.471C22.0346 455.509 21.8079 455.282 21.5811 454.791C21.3543 454.299 21.2032 453.808 21.2032 453.317C21.2032 452.939 21.3165 452.75 21.5433 452.75C21.8079 452.75 22.0724 452.75 22.337 452.75C22.6394 452.674 23.0551 452.409 23.5465 451.956C23.8866 451.654 24.2268 451.351 24.5291 451.049C24.8693 450.822 25.0961 450.671 25.285 450.671C25.7386 450.671 26.2677 451.124 26.9102 452.069L26.9858 451.994Z" fill="white"/>
<path d="M0 433.209H286.828V435.326H0V433.209Z" fill="white"/>
</g>
<defs>
<clipPath id="clip0_1_2">
<rect width="286.828" height="491.339" fill="white"/>
</clipPath>
</defs>
</svg>
